<svg width="52" height="52" fill="none" xmlns="http://www.w3.org/2000/svg"><path d="M26.006 0h-.012C11.658 0 0 11.661 0 26a25.807 25.807 0 0 0 4.95 15.24l-3.24 9.658 9.993-3.195A25.775 25.775 0 0 0 26.006 52C40.343 52 52 40.336 52 26S40.342 0 26.006 0Z" fill="#fff"/><path d="M41.135 36.715c-.627 1.772-3.116 3.24-5.102 3.67-1.359.289-3.133.52-9.107-1.957-7.64-3.165-12.561-10.93-12.944-11.433-.368-.504-3.088-4.112-3.088-7.843 0-3.73 1.895-5.547 2.659-6.327.627-.64 1.663-.933 2.658-.933.322 0 .611.016.871.03.764.032 1.147.077 1.651 1.283.627 1.511 2.155 5.242 2.337 5.626.185.383.37.903.11 1.407-.244.52-.458.75-.841 1.193-.384.442-.748.78-1.131 1.254-.351.413-.748.855-.306 1.619.442.747 1.97 3.24 4.218 5.242 2.903 2.584 5.256 3.41 6.098 3.76.627.26 1.374.198 1.832-.29.582-.626 1.3-1.666 2.032-2.69.52-.735 1.176-.826 1.865-.566.702.244 4.417 2.08 5.18 2.46.764.384 1.268.566 1.453.888.183.322.183 1.833-.445 3.607Z" fill="#2E009F"/></svg>